PathFileType	4	(X/Y/Z)	C:/Users/opensim2020/Desktop/walking_exp_matlab/subject06_walking13_straight_02.trc	
DataRate	CameraRate	NumFrames	NumMarkers	Units	OrigDataRate	OrigDataStartFrame	OrigNumFrames	
100.00	100.00	8	50	mm	100.00	1586	199	
Frame#	Time	LFHD			RFHD			LBHD			RBHD			C7			T10			CLAV			STRN			RBAK			LSHO			LUPA			LELB			LFRM			LWRA			LWRB			LFIN			RSHO			RUPA			RELB			RFRM			RWRA			RWRB			RFIN			LASI			RASI			LPSI			RPSI			LTHI			LKNE			LTIB			LANK			LHEE			LTOE			RTHI			RKNE			RTIB			RANK			RHEE			RTOE			*39			*40			*41			*42			*43			*44			*45			*46			*47			*48			*49			
		X1	Y1	Z1	X2	Y2	Z2	X3	Y3	Z3	X4	Y4	Z4	X5	Y5	Z5	X6	Y6	Z6	X7	Y7	Z7	X8	Y8	Z8	X9	Y9	Z9	X10	Y10	Z10	X11	Y11	Z11	X12	Y12	Z12	X13	Y13	Z13	X14	Y14	Z14	X15	Y15	Z15	X16	Y16	Z16	X17	Y17	Z17	X18	Y18	Z18	X19	Y19	Z19	X20	Y20	Z20	X21	Y21	Z21	X22	Y22	Z22	X23	Y23	Z23	X24	Y24	Z24	X25	Y25	Z25	X26	Y26	Z26	X27	Y27	Z27	X28	Y28	Z28	X29	Y29	Z29	X30	Y30	Z30	X31	Y31	Z31	X32	Y32	Z32	X33	Y33	Z33	X34	Y34	Z34	X35	Y35	Z35	X36	Y36	Z36	X37	Y37	Z37	X38	Y38	Z38	X39	Y39	Z39	X40	Y40	Z40	X41	Y41	Z41	X42	Y42	Z42	X43	Y43	Z43	X44	Y44	Z44	X45	Y45	Z45	X46	Y46	Z46	X47	Y47	Z47	X48	Y48	Z48	X49	Y49	Z49	X50	Y50	Z50	

50	0.490	1529.60168	502.46249	1666.86279	1398.58203	507.33472	1656.70325	1533.37415	639.92139	1620.25610	1404.86304	642.30280	1615.98193	1475.92590	650.11133	1459.35571	1468.39185	685.19604	1129.35486	1470.08191	540.31323	1381.42322	1473.35046	502.17276	1205.16162	1399.53003	727.10510	1288.35156	1633.19214	587.88464	1411.75403	1710.34277	583.95758	1211.03955	1725.52832	585.13300	1098.94739	1749.88257	549.83423	953.71924	1703.23169	487.60812	841.17743	1748.98254	542.41870	834.01324	1747.17688	495.26062	756.55847	1310.92712	591.98132	1411.77222	1229.16589	628.53979	1208.95984	1221.18164	616.85577	1086.87561	1206.30164	603.37036	966.69916	1238.14795	546.15198	826.45282	1199.29321	600.95355	828.73132	1196.04932	565.55713	752.79858	1571.12085	503.04031	972.75043	1351.20215	512.39172	974.20386	1547.93640	661.97552	996.83252	1380.26624	662.10120	993.88019	1626.44275	551.19403	656.38788	1599.59253	541.79681	493.66306	1586.33972	583.82135	239.57484	1541.03198	597.63080	69.38557	1497.07471	639.45703	56.24317	1533.35535	452.94226	41.49617	1292.70959	504.55338	641.77765	1310.47729	463.98047	521.56378	1321.85583	626.97339	326.29379	1368.45032	755.20490	193.64029	1416.99951	798.73645	197.54948	1361.66772	664.36505	66.44753	1473.69128	602.77002	1711.80176																														 
51	0.500	1529.77271	492.06039	1667.24402	1398.69214	497.11047	1656.75159	1533.72241	629.56836	1620.59961	1405.16724	632.04791	1616.07642	1476.48303	639.93140	1459.70410	1469.29504	675.79510	1129.81409	1470.55457	530.38275	1381.59399	1474.17078	492.40134	1205.33154	1400.49707	717.28424	1289.00269	1633.64258	577.49030	1412.15613	1711.11340	570.08069	1211.68445	1726.83887	568.61902	1099.60461	1751.21582	529.40240	955.37659	1704.51038	464.64484	844.53442	1750.60559	518.79419	836.10797	1748.62378	469.57022	759.91895	1311.40308	581.92841	1411.86816	1230.08118	621.23804	1209.19788	1222.27417	611.42279	1087.12769	1207.34692	600.80328	966.65643	1239.32068	547.20532	824.90356	1200.22754	601.85248	828.62152	1197.08008	568.86359	751.61993	1572.42102	493.55051	972.79852	1352.37244	502.54517	975.01147	1548.46252	652.80756	996.97302	1380.76221	652.42670	994.39514	1626.73169	544.53754	656.12415	1599.84607	537.00922	493.18744	1586.58582	581.39996	239.47148	1540.87756	597.23779	69.35403	1496.97034	639.22198	56.23423	1533.54944	452.92087	41.32814	1293.38660	490.48889	643.80438	1312.00586	448.11996	524.35962	1322.67224	605.16187	322.92560	1368.97815	728.26495	185.41371	1417.60364	771.89758	186.69394	1361.16113	630.78711	64.26060	1473.76611	592.40161	1712.01245																														 
52	0.510	1529.83716	481.69379	1667.37195	1398.77661	486.93005	1656.67444	1534.01233	619.21771	1620.91345	1405.40295	621.82703	1616.10193	1477.07556	629.86920	1459.97778	1470.22693	666.37457	1130.11877	1470.99792	520.38324	1381.66760	1474.91406	482.72873	1205.36646	1401.52698	707.43475	1289.50513	1634.05737	567.15985	1412.47241	1711.89075	556.45416	1212.36475	1728.18054	552.54120	1100.39172	1752.59644	509.26447	957.20239	1705.70483	441.56760	848.30273	1752.05884	495.22513	838.39417	1749.80457	443.93729	763.61267	1311.82166	571.96863	1411.82080	1230.65540	613.44641	1209.52100	1223.31873	605.96307	1087.36023	1208.32239	598.14581	966.68500	1240.34180	548.38324	823.49615	1201.01794	602.51813	828.77240	1198.33301	571.45093	750.55988	1573.45740	484.65680	972.52936	1353.37976	492.77893	975.69971	1548.97925	643.61609	997.05872	1381.19287	642.76569	994.84137	1626.74329	537.55341	655.81464	1600.04871	532.08380	492.72797	1586.89160	578.84821	239.30305	1540.95581	596.71625	69.43016	1497.30701	639.28845	56.60410	1533.36414	452.55457	41.11228	1294.11047	476.50076	645.72937	1313.56299	432.71356	526.88983	1323.58997	583.34125	319.34595	1369.54517	700.54272	176.68507	1418.46423	744.09796	175.44188	1360.14832	596.96246	62.26166	1473.83203	582.01953	1712.14758																														 
53	0.520	1529.94275	471.32559	1667.37085	1398.92151	476.67496	1656.44849	1534.29614	608.86829	1621.07336	1405.72778	611.64978	1616.04419	1477.57788	619.79803	1460.07434	1471.08752	656.77039	1130.28552	1471.43640	510.45755	1381.64429	1475.57324	473.11603	1205.33887	1402.62524	697.62646	1289.78833	1634.55713	557.02338	1412.67334	1712.61658	543.14929	1212.92126	1729.30737	536.77057	1101.04736	1753.91895	489.53171	959.24426	1706.80640	418.66977	852.41650	1753.20618	471.88577	840.88776	1750.88916	418.41953	767.71674	1312.24121	562.09625	1411.70984	1231.49731	605.85730	1209.77039	1224.24707	600.51349	1087.57104	1209.32886	595.27618	966.78345	1241.39429	549.08954	822.35785	1201.84790	603.05554	828.91736	1199.48633	574.14575	749.81720	1574.32178	475.72354	972.16333	1354.22632	482.96848	976.19647	1549.39966	634.40167	996.98444	1381.62671	633.13525	995.15845	1626.77441	530.64227	655.40186	1600.29456	527.12054	492.19077	1587.13953	576.40942	239.15482	1540.94092	596.37061	69.53597	1496.94995	638.57050	56.76689	1533.07642	451.95547	40.74439	1294.78455	462.80319	647.45203	1315.09839	417.99689	529.27838	1324.48901	561.57660	315.54071	1369.92139	672.30402	167.66779	1418.88672	715.67169	163.71133	1359.82947	562.93414	59.46104	1473.90918	571.58069	1712.13123																														 
54	0.530	1530.02185	460.93127	1667.27612	1398.97083	466.45648	1656.16064	1534.58423	598.50488	1621.12073	1405.98132	601.37579	1615.91052	1478.12744	609.71655	1460.06873	1471.89929	647.19244	1130.28735	1471.84790	500.60672	1381.46521	1476.24402	463.34427	1205.22754	1403.75098	687.86145	1289.87781	1635.08923	547.02454	1412.78638	1713.41895	530.12976	1213.42053	1730.59619	521.55255	1101.81079	1755.09363	470.14273	961.35309	1707.87988	396.00049	856.80701	1754.15601	448.86063	843.58636	1751.89380	393.13791	772.18793	1312.66895	552.27020	1411.53333	1232.13586	598.79199	1209.93835	1225.12695	595.05603	1087.76611	1210.31567	592.28009	966.90948	1242.37866	549.45709	821.27826	1202.62610	603.28253	829.19568	1200.69836	576.19678	749.18921	1575.18298	466.57089	971.65509	1355.09717	473.38531	976.40576	1549.79175	625.20789	996.87781	1382.01074	623.49347	995.33850	1626.94006	523.87579	655.02710	1600.48328	522.13739	491.61658	1587.47034	574.24060	239.03479	1540.77466	596.15338	69.67039	1497.03052	638.34814	56.92551	1533.03674	451.65994	40.51286	1295.49475	449.33792	649.08105	1316.61816	403.70874	531.52686	1325.31238	539.99103	311.74414	1370.38916	643.15857	158.39096	1419.75488	685.96637	151.90428	1358.84448	528.18634	56.89555	1473.98499	561.16730	1712.06543																														 
55	0.540	1530.05957	450.53284	1667.00122	1399.05933	456.20621	1655.69165	1534.83789	588.14337	1621.11938	1406.23572	591.12439	1615.68298	1478.66528	599.69995	1459.93933	1472.62146	637.56360	1130.15308	1472.28613	490.72623	1381.20190	1476.86890	453.56085	1204.99548	1404.77148	678.07123	1289.82227	1635.61316	536.99359	1412.82520	1714.12549	517.41650	1213.83862	1731.72607	506.31570	1102.53113	1756.15759	451.07278	963.54218	1708.87817	373.56226	861.47681	1754.78796	426.27524	846.45697	1752.67297	368.18164	776.96930	1313.05676	542.50800	1411.23279	1232.84985	591.54144	1210.14990	1225.98889	589.52075	1087.93787	1211.14099	589.19690	967.06952	1243.42822	549.57428	820.21484	1203.42212	603.14691	829.54431	1201.81274	578.12457	748.86334	1575.90674	457.40494	971.08698	1355.73474	463.60318	976.51514	1550.17480	615.96558	996.70001	1382.28430	613.83911	995.38690	1627.06738	517.09290	654.56506	1600.58826	517.21912	491.04565	1587.78149	572.30103	238.90900	1540.69519	595.89642	69.81094	1497.22693	638.49249	57.70045	1532.99292	451.46323	40.27304	1296.08057	436.46194	650.51782	1318.02380	389.96851	533.29071	1326.17004	518.30261	307.76019	1370.94092	613.66534	149.20819	1420.51538	655.78412	140.27783	1358.32690	493.48187	54.25763	1474.08313	550.73029	1711.87439																														 
56	0.550	1530.06030	440.06845	1666.65259	1399.12280	445.91495	1655.16492	1535.09216	577.74738	1620.97876	1406.51318	580.97711	1615.34326	1479.16821	589.68304	1459.70935	1473.30859	627.88745	1129.91150	1472.64832	480.66382	1380.86914	1477.43835	443.91721	1204.63684	1405.81128	668.26355	1289.60364	1636.04187	526.90662	1412.75757	1714.96423	505.04889	1214.20862	1732.82349	491.42398	1103.22217	1757.02380	432.24423	965.70618	1709.76746	351.41321	866.41095	1755.18091	403.97778	849.41327	1753.30627	343.55286	782.03223	1313.45007	532.80609	1410.88611	1233.49756	584.55554	1210.29382	1226.80225	584.04156	1088.07080	1211.99512	585.95624	967.20624	1244.24573	549.22803	819.95721	1204.22449	602.60724	829.98480	1202.87195	579.62842	748.72058	1576.56995	448.27042	970.43683	1356.36389	453.77655	976.41370	1550.40344	606.76801	996.38770	1382.49170	604.17426	995.27948	1627.10217	510.35587	653.97113	1600.73450	512.37030	490.40314	1588.13647	570.52081	238.89206	1540.72937	595.54968	69.97286	1497.09766	638.15967	57.90031	1532.85657	451.13254	39.96937	1296.66272	423.89133	651.66034	1319.24915	376.80881	534.93323	1326.71545	496.55865	303.65936	1371.56824	583.40662	140.13959	1421.25964	625.01971	128.83409	1358.31726	458.59351	51.67067	1474.18518	540.25299	1711.57837																														 
57	0.560	1530.12866	429.67172	1666.19800	1399.11462	435.78107	1654.51660	1535.48242	567.34900	1620.91406	1406.75366	570.81146	1614.91052	1479.65662	579.67407	1459.32007	1473.88367	618.16028	1129.54053	1472.99341	470.94427	1380.35083	1478.00781	434.22067	1204.12317	1406.72253	658.43243	1289.24243	1636.44922	516.92932	1412.57593	1715.71350	492.83762	1214.50977	1733.75952	476.71283	1103.84143	1757.47998	413.81790	967.84167	1710.56885	329.62332	871.57440	1755.37268	381.98657	852.59723	1753.75793	319.30316	787.33704	1313.81519	523.13654	1410.42896	1234.32007	577.76862	1210.38574	1227.52930	578.44354	1088.23694	1212.80859	582.55743	967.40961	1245.52991	549.21674	819.06213	1204.97998	601.79541	830.52301	1203.97607	580.56366	748.67108	1577.24585	439.22531	969.63721	1356.98706	443.81967	976.24536	1550.55286	597.58423	995.99084	1382.72742	594.67920	995.09253	1627.12109	503.72568	653.34827	1600.84766	507.55234	489.74905	1588.53394	568.69995	238.74480	1540.66516	595.36780	70.12717	1497.04602	638.02625	58.18549	1532.86743	451.10019	39.83316	1297.13586	411.92075	652.54163	1320.34241	364.21616	536.20526	1327.38806	474.99036	299.42877	1371.99487	552.87628	131.32414	1421.72351	593.85858	117.83561	1358.07056	423.56638	49.66677	1473.89001	529.55670	1711.14539																														 
